<svg width="101" height="164" viewBox="0 0 101 164" fill="none" xmlns="http://www.w3.org/2000/svg">
<path d="M32 150C70.1077 150 101 119.108 101 81C101 42.8923 70.1077 12 32 12V150Z" fill="#37A58C" fill-opacity="0.3"/>
<circle cx="32" cy="7" r="7" fill="#37A58C"/>
<circle cx="32" cy="157" r="7" fill="#37A58C"/>
<line x1="32.5" y1="10" x2="32.5" y2="164" stroke="#37A58C"/>
<circle cx="32" cy="81" r="31" fill="white"/>
<circle cx="32" cy="81" r="31" stroke="#37A58C" stroke-width="2"/>
<circle cx="32" cy="81" r="31" stroke="#37A58C" stroke-width="2"/>
<path d="M39.8212 83.7693C42.5506 81.5128 44.2928 78.1023 44.2928 74.2925C44.2928 67.5144 38.7785 62 32.0004 62C25.2223 62 19.7079 67.5144 19.7079 74.2925C19.7079 78.1023 21.4501 81.5128 24.1796 83.7693V87.7676H20.7469V90.8704L32.0004 100L43.2538 90.8703V87.7676H39.8212V83.7693ZM21.9344 74.2925C21.9344 68.7421 26.45 64.2266 32.0004 64.2266C37.5507 64.2266 42.0663 68.7421 42.0663 74.2925C42.0663 79.8429 37.5507 84.3584 32.0004 84.3584C26.45 84.3584 21.9344 79.8429 21.9344 74.2925ZM40.7997 89.9942L32.0004 97.1329L23.201 89.9941H26.4061V85.2366C28.0851 86.0984 29.987 86.585 32.0004 86.585C34.0138 86.585 35.9156 86.0984 37.5946 85.2366V89.9941H40.7997V89.9942Z" fill="#37A58C"/>
<path d="M31.3637 75.4057H32.637C33.3013 75.4057 33.8418 75.9462 33.8418 76.6105C33.8418 77.2749 33.3013 77.8153 32.637 77.8153H31.341C30.6993 77.8153 30.1773 77.2933 30.1773 76.6516H27.9507C27.9507 78.367 29.2316 79.7879 30.887 80.0106V81.5957H33.1135V80.008C34.7807 79.7751 36.0683 78.3407 36.0683 76.6105C36.0683 74.7184 34.529 73.1791 32.6369 73.1791H31.3636C30.6993 73.1791 30.1588 72.6386 30.1588 71.9743C30.1588 71.31 30.6993 70.7695 31.3636 70.7695H32.6077C33.2729 70.7695 33.814 71.3106 33.814 71.9757H36.0406C36.0406 70.2547 34.7674 68.8259 33.1135 68.5805V66.9893H30.887V68.5769C29.2198 68.8098 27.9323 70.2442 27.9323 71.9745C27.9323 73.8664 29.4716 75.4057 31.3637 75.4057Z" fill="#37A58C"/>
</svg>
