<svg width="101" height="164" viewBox="0 0 101 164" fill="none" xmlns="http://www.w3.org/2000/svg">
<path d="M32 150C70.1077 150 101 119.108 101 81C101 42.8923 70.1077 12 32 12V150Z" fill="#37A58C" fill-opacity="0.3"/>
<circle cx="32" cy="7" r="7" fill="#37A58C"/>
<circle cx="32" cy="157" r="7" fill="#37A58C"/>
<line x1="32.5" y1="10" x2="32.5" y2="164" stroke="#37A58C"/>
<circle cx="32" cy="81" r="31" fill="white"/>
<circle cx="32" cy="81" r="31" stroke="#37A58C" stroke-width="2"/>
<circle cx="32" cy="81" r="31" stroke="#37A58C" stroke-width="2"/>
<path d="M46.875 89.91L41.4338 80.4638C41.9963 79.1906 42.3132 77.7881 42.3132 76.3125C42.3132 70.6256 37.6875 66 32.0007 66C26.3138 66 21.6882 70.6256 21.6882 76.3125C21.6882 77.7881 22.005 79.1906 22.5675 80.4619L17.1263 89.9062C16.9369 90.2362 16.9632 90.6469 17.1957 90.9469C17.4282 91.2469 17.8163 91.3819 18.1819 91.2806L23.6869 89.7994L25.1513 95.3025C25.2488 95.67 25.5582 95.9419 25.9332 95.9906C25.9763 95.9981 26.0175 96 26.0569 96C26.3888 96 26.7 95.8237 26.8688 95.5312L32.0007 86.6475L37.1325 95.5312C37.3013 95.8237 37.6125 96 37.9444 96C37.9838 96 38.0269 95.9981 38.0682 95.9925C38.4432 95.9438 38.7525 95.6719 38.85 95.3044L40.3144 89.8013L45.8194 91.2825C46.185 91.3838 46.575 91.2487 46.8057 90.9487C47.0363 90.6488 47.0644 90.2381 46.875 89.91ZM26.3794 92.6306L25.2563 88.41C25.1925 88.17 25.035 87.9638 24.8194 87.8381C24.6038 87.7144 24.345 87.6825 24.1069 87.7444L19.8807 88.8806L23.6494 82.3387C25.1438 84.405 27.3769 85.9013 29.9663 86.4225L26.3794 92.6306ZM23.5632 76.3125C23.5632 71.6606 27.3488 67.875 32.0007 67.875C36.6525 67.875 40.4382 71.6606 40.4382 76.3125C40.4382 80.9644 36.6525 84.75 32.0007 84.75C27.3488 84.75 23.5632 80.9644 23.5632 76.3125ZM39.8944 87.7463C39.6544 87.6825 39.3975 87.7162 39.1819 87.84C38.9663 87.9637 38.8088 88.17 38.745 88.4119L37.6219 92.6325L34.035 86.4244C36.6225 85.905 38.8575 84.4069 40.3519 82.3406L44.1207 88.8825L39.8944 87.7463Z" fill="#37A58C"/>
<path d="M37.5766 73.9724C37.4772 73.6705 37.2316 73.4417 36.9241 73.3611L34.2653 72.6655L32.8066 70.2092C32.4691 69.6392 31.5316 69.6392 31.1959 70.2092L29.7372 72.6655L27.0766 73.3611C26.7672 73.4417 26.5234 73.6705 26.4222 73.9724C26.3209 74.2742 26.3809 74.6042 26.5797 74.8536L28.3628 77.0849L28.1678 80.0005C28.1472 80.3249 28.2953 80.638 28.5616 80.8274C28.8278 81.0167 29.1728 81.0524 29.4709 80.9249L32.0003 79.8505L34.5297 80.9249C34.6478 80.9755 34.7734 80.9999 34.8972 80.9999C35.0884 80.9999 35.2797 80.9417 35.4409 80.8274C35.7072 80.638 35.8553 80.3249 35.8328 80.0005L35.6378 77.0849L37.4191 74.8536C37.6178 74.6061 37.6759 74.2742 37.5766 73.9724ZM33.9466 76.1999C33.8003 76.3836 33.7272 76.6142 33.7441 76.8467L33.8622 78.6036L32.3678 77.968C32.2497 77.9174 32.1241 77.893 32.0003 77.893C31.8766 77.893 31.7509 77.9174 31.6328 77.968L30.1403 78.6036L30.2566 76.8467C30.2734 76.6142 30.2003 76.3836 30.0541 76.1999L28.9459 74.8105L30.5828 74.3811C30.8209 74.3192 31.0253 74.1636 31.1509 73.9536L32.0003 72.523L32.8497 73.9536C32.9753 74.1636 33.1797 74.3192 33.4178 74.3811L35.0547 74.8105L33.9466 76.1999Z" fill="#37A58C"/>
</svg>
