<svg width="101" height="164" viewBox="0 0 101 164" fill="none" xmlns="http://www.w3.org/2000/svg">
<path d="M32 150C70.1077 150 101 119.108 101 81C101 42.8923 70.1077 12 32 12V150Z" fill="#37A58C" fill-opacity="0.3"/>
<circle cx="32" cy="7" r="7" fill="#37A58C"/>
<circle cx="32" cy="157" r="7" fill="#37A58C"/>
<line x1="32.5" y1="10" x2="32.5" y2="164" stroke="#37A58C"/>
<circle cx="32" cy="81" r="31" fill="white"/>
<circle cx="32" cy="81" r="31" stroke="#37A58C" stroke-width="2"/>
<circle cx="32" cy="81" r="31" stroke="#37A58C" stroke-width="2"/>
<path d="M42.6176 71.1084C39.8909 68.3761 36.3388 66.772 32.5247 66.5275V65.0508H34.0286C34.5948 65.0508 35.0539 64.5917 35.0539 64.0254C35.0539 63.4591 34.5948 63 34.0286 63H28.97C28.4037 63 27.9446 63.4591 27.9446 64.0254C27.9446 64.5917 28.4037 65.0508 28.97 65.0508H30.4739V66.5275C27.8586 66.6952 25.3669 67.5021 23.1797 68.8739L22.2057 67.8979C21.7316 67.4229 21.101 67.1613 20.4299 67.1613C19.7588 67.1613 19.1282 67.4229 18.6542 67.8979L17.1728 69.3825C16.1976 70.3596 16.1976 71.9495 17.1728 72.9266L18.1535 73.9093C16.6056 76.3861 15.7767 79.2525 15.7767 82.2469C15.7767 86.4542 17.4118 90.41 20.3809 93.3853C23.3506 96.3611 27.2992 98 31.4993 98C35.6993 98 39.6479 96.3611 42.6176 93.3853C45.5867 90.41 47.2218 86.4542 47.2218 82.2469C47.2218 78.0395 45.5867 74.0837 42.6176 71.1084ZM18.6244 70.8312L20.1059 69.3466C20.2226 69.2297 20.359 69.2122 20.43 69.2122C20.5009 69.2122 20.6374 69.2296 20.7541 69.3466L21.4972 70.0912C21.1118 70.4106 20.7392 70.7496 20.381 71.1085C20.0239 71.4664 19.6866 71.8387 19.3686 72.2237L18.6244 71.478C18.4464 71.2996 18.4464 71.0095 18.6244 70.8312ZM31.4993 95.9492C23.9606 95.9492 17.8275 89.8023 17.8275 82.2469C17.8275 74.6914 23.9606 68.5445 31.4993 68.5445C39.0379 68.5445 45.1711 74.6913 45.1711 82.2469C45.1711 89.8024 39.0379 95.9492 31.4993 95.9492Z" fill="#37A58C"/>
<path d="M31.5007 70.4668C25.0174 70.4668 19.7429 75.7514 19.7429 82.247C19.7429 88.7427 25.0174 94.0273 31.5007 94.0273C37.9841 94.0273 43.2586 88.7427 43.2586 82.247C43.2586 75.7514 37.9841 70.4668 31.5007 70.4668ZM32.5261 91.9222V90.7237C32.5261 90.1574 32.067 89.6983 31.5007 89.6983C30.9345 89.6983 30.4754 90.1574 30.4754 90.7237V91.9222C25.9393 91.4427 22.3249 87.8192 21.8475 83.2724H23.0242C23.5905 83.2724 24.0496 82.8133 24.0496 82.247C24.0496 81.6807 23.5905 81.2216 23.0242 81.2216H21.8476C22.3249 76.6749 25.9393 73.0514 30.4754 72.5719V73.7704C30.4754 74.3367 30.9345 74.7958 31.5007 74.7958C32.067 74.7958 32.5261 74.3367 32.5261 73.7704V72.5719C37.0622 73.0514 40.6766 76.6749 41.154 81.2216H39.9773C39.411 81.2216 38.9519 81.6807 38.9519 82.247C38.9519 82.8133 39.411 83.2724 39.9773 83.2724H41.1539C40.6766 87.8192 37.0622 91.4427 32.5261 91.9222Z" fill="#37A58C"/>
<path d="M34.0291 81.655H32.5825V77.5078C32.5825 76.9415 32.1234 76.4824 31.5571 76.4824C30.9908 76.4824 30.5317 76.9415 30.5317 77.5078V82.6804C30.5317 83.2467 30.9908 83.7058 31.5571 83.7058H34.0291C34.5954 83.7058 35.0545 83.2467 35.0545 82.6804C35.0545 82.1141 34.5954 81.655 34.0291 81.655Z" fill="#37A58C"/>
</svg>
