<svg width="45" height="45" viewBox="0 0 45 45" fill="none" xmlns="http://www.w3.org/2000/svg">
<circle cx="22.5" cy="22.5" r="22.5" fill="#37A58C" fill-opacity="0.5"/>
<circle cx="22.5" cy="22.5" r="15.5" fill="#37A58C"/>
<path d="M23.128 27.296H21.304C21.064 27.296 20.944 27.184 20.944 26.96L20.752 19.568V15.2C20.752 14.96 20.864 14.84 21.088 14.84H23.32C23.56 14.84 23.68 14.96 23.68 15.2V19.568L23.488 26.96C23.488 27.184 23.368 27.296 23.128 27.296ZM23.512 29.12C23.864 29.472 24.04 29.904 24.04 30.416C24.04 30.928 23.864 31.36 23.512 31.712C23.16 32.064 22.728 32.24 22.216 32.24C21.688 32.24 21.248 32.064 20.896 31.712C20.56 31.36 20.392 30.928 20.392 30.416C20.392 29.904 20.56 29.472 20.896 29.12C21.248 28.768 21.688 28.592 22.216 28.592C22.728 28.592 23.16 28.768 23.512 29.12Z" fill="white"/>
</svg>
