<svg width="88" height="88" viewBox="0 0 88 88" fill="none" xmlns="http://www.w3.org/2000/svg">
<g clip-path="url(#clip0)">
<path d="M29.3334 0C17.1831 0 7.33337 9.84977 7.33337 22V38.1333C7.33979 43.8007 11.9327 48.3936 17.6 48.4H19.0667V45.4667H17.6C13.552 45.4619 10.2715 42.1813 10.2667 38.1333V22C10.2667 11.4697 18.8031 2.93333 29.3334 2.93333C39.8637 2.93333 48.4 11.4697 48.4 22V38.1333C48.3953 42.1813 45.1147 45.4619 41.0667 45.4667H39.6V48.4H41.0667C46.7341 48.3936 51.327 43.8007 51.3334 38.1333V22C51.3334 9.84977 41.4836 0 29.3334 0Z" fill="#37A58C"/>
<path d="M12.0867 69.1227L13.1588 67.4346L10.6816 65.8623L9.60952 67.5519C6.3669 72.6618 6.60762 79.2412 10.2152 84.1003V88.0002H13.1486V83.6002C13.1488 83.2671 13.0355 82.9437 12.8274 82.6835C9.70925 78.7855 9.4117 73.3372 12.0867 69.1227Z" fill="#37A58C"/>
<path d="M80.6667 0H61.6001C57.5521 0.00476667 54.2715 3.28533 54.2667 7.33333V22C54.2715 26.048 57.5521 29.3286 61.6001 29.3333H64.5334V35.2C64.5332 35.7931 64.8903 36.328 65.4383 36.5552C65.6163 36.6295 65.8072 36.6672 66.0001 36.6667C66.3891 36.6667 66.762 36.5119 67.037 36.2369L73.9406 29.3333H80.6667C84.7147 29.3286 87.9953 26.048 88.0001 22V7.33333C87.9953 3.28533 84.7147 0.00476667 80.6667 0ZM85.0667 22C85.0667 24.4301 83.0968 26.4 80.6667 26.4H73.3334C72.9444 26.4 72.5715 26.5547 72.2965 26.8297L67.4667 31.6595V27.8667C67.4667 27.0567 66.81 26.4 66.0001 26.4H61.6001C59.17 26.4 57.2001 24.4301 57.2001 22V7.33333C57.2001 4.90325 59.17 2.93333 61.6001 2.93333H80.6667C83.0968 2.93333 85.0667 4.90325 85.0667 7.33333V22Z" fill="#37A58C"/>
<path d="M71.8666 7.3335H61.6V10.2668H71.8666V7.3335Z" fill="#37A58C"/>
<path d="M80.6667 7.3335H74.8V10.2668H80.6667V7.3335Z" fill="#37A58C"/>
<path d="M80.6666 13.2002H61.6V16.1335H80.6666V13.2002Z" fill="#37A58C"/>
<path d="M71.8666 19.0669H61.6V22.0002H71.8666V19.0669Z" fill="#37A58C"/>
<path d="M49.057 67.5519L47.9849 65.8623L45.5077 67.4346L46.5798 69.1242C49.255 73.3381 48.9575 78.786 45.8392 82.6835C45.6311 82.9437 45.5178 83.2671 45.518 83.6002V88.0002H48.4513V84.1003C52.0589 79.2412 52.2997 72.6618 49.057 67.5519Z" fill="#37A58C"/>
<path d="M86.5333 49.8666H73.3333C67.8304 49.873 63.3112 54.2169 63.0872 59.7153L58.6667 67.6734V61.5999C58.6603 55.9326 54.0674 51.3397 48.4 51.3333H43.0393L42.9997 51.3025L42.9733 51.3333H39.6C37.9799 51.3333 36.6667 50.0201 36.6667 48.3999V44.9489C41.1985 42.3323 43.993 37.4995 44 32.2666V20.5333C43.9978 18.1032 43.3932 15.7116 42.24 13.5725C41.8706 12.892 41.0357 12.6157 40.3333 12.9418L15.5085 24.6224C14.9945 24.8644 14.6665 25.3815 14.6667 25.9497V32.2666C14.6736 37.4995 17.4682 42.3323 22 44.9489V48.3999C22 50.0201 20.6868 51.3333 19.0667 51.3333H10.2667C4.59928 51.3397 0.00641667 55.9326 0 61.5999V87.9999H2.93333V61.5999C2.9381 57.5519 6.21867 54.2714 10.2667 54.2666H14.9336L28.1409 72.7202C28.4123 73.0995 28.8479 73.327 29.3143 73.3333H29.3333C29.795 73.3333 30.2296 73.1158 30.5067 72.7466L44.44 54.2666H48.4C52.448 54.2714 55.7286 57.5519 55.7333 61.5999V73.3333C55.7341 74.1432 56.3913 74.7994 57.2013 74.7986C57.7333 74.7981 58.2234 74.5097 58.4819 74.0446L65.3957 61.5999H73.8041L59.5041 87.9999H62.8408L77.1467 61.5999H77.7333C83.4007 61.5935 87.9936 57.0007 88 51.3333C88 50.5233 87.3433 49.8666 86.5333 49.8666ZM17.6 32.2666V26.881L40.2468 16.2242C40.7886 17.5963 41.0667 19.0582 41.0667 20.5333V32.2666C41.0667 38.7467 35.8134 43.9999 29.3333 43.9999C22.8532 43.9999 17.6 38.7467 17.6 32.2666ZM29.3641 69.3909L24.838 63.0666H34.1308L29.3641 69.3909ZM36.3499 60.1333H22.7333L18.5343 54.2666H19.0667C22.3067 54.2666 24.9333 51.64 24.9333 48.3999V46.2571C27.7974 47.1586 30.8693 47.1586 33.7333 46.2571V48.3999C33.7333 51.64 36.36 54.2666 39.6 54.2666H40.7733L36.3499 60.1333ZM77.7333 58.6666H66.1467C66.8479 55.2542 69.8496 52.8038 73.3333 52.7999H84.92C84.2188 56.2123 81.217 58.6628 77.7333 58.6666Z" fill="#37A58C"/>
</g>
<defs>
<clipPath id="clip0">
<rect width="88" height="88" fill="white"/>
</clipPath>
</defs>
</svg>
