<svg width="102" height="88" viewBox="0 0 102 88" fill="none" xmlns="http://www.w3.org/2000/svg">
<path d="M61.7124 58.5931C64.7756 60.8171 66.2228 67.381 66.5239 69.7275L68.8082 86.9582L71.1949 86.6451L68.9126 69.3943C68.8644 69.0129 67.656 59.9259 63.1376 56.6661C61.6241 55.6544 60.0022 54.8133 58.3 54.1609C58.1976 54.0827 58.0872 54.0204 57.9648 53.9783L56.9712 53.627C55.4697 53.0469 53.902 52.5049 52.3965 52.0352L51.4672 51.71C51.3748 51.6759 51.2805 51.6558 51.1821 51.6458C48.665 50.8489 46.4549 50.2608 45.2706 49.9516V47.3181C48.8657 44.7487 51.0015 40.6016 50.9974 36.1836V34.1562C51.3989 34.3027 51.8224 34.379 52.246 34.385C54.2553 34.385 55.8832 32.7571 55.8832 30.7478V27.504C55.8832 26.6228 55.558 25.7737 54.9739 25.1193C55.3613 24.5011 55.558 23.7825 55.542 23.0558V21.6708C55.5982 20.6611 55.279 19.6655 54.6487 18.8726C54.3215 18.5314 53.902 18.2865 53.4403 18.1721C53.1553 14.8861 51.5956 5.23904 43.2754 1.46933H43.2031C41.0352 0.539954 38.7088 0.0421441 36.3542 0.00400548H35.6617C33.4095 -0.0421624 31.1673 0.311122 29.0356 1.04579H28.9794C19.7659 4.43411 18.1058 14.7296 17.8449 18.14C17.3812 18.2544 16.9597 18.4973 16.6345 18.8405C15.9741 19.6233 15.6288 20.621 15.671 21.6407V23.0659C15.6529 23.7925 15.8496 24.5091 16.235 25.1233C15.6549 25.7838 15.3277 26.6328 15.3277 27.514V30.7639C15.3277 32.7732 16.9577 34.3991 18.965 34.3991C19.3925 34.3991 19.812 34.3208 20.2115 34.1702V36.2057C20.2195 40.5735 22.3091 44.6744 25.838 47.2478V49.9516C21.5825 51.0617 17.3892 52.4086 13.2843 53.9923H13.2301C11.4115 54.6728 9.67719 55.562 8.0573 56.6339C3.53887 59.9259 2.33248 69.0029 2.2823 69.3642L0 86.625L2.38668 86.9341L4.66898 69.6734C4.97409 67.3328 6.41734 60.777 9.44234 58.5348C10.4038 57.8945 11.4235 57.3485 12.4894 56.9029V67.2425C10.731 67.8889 8.51296 69.6974 8.51296 73.5153V86.8077C8.51296 87.464 9.04489 88 9.70529 88H61.5458C62.2062 88 62.7361 87.464 62.7361 86.8077V73.5374C62.7361 69.7195 60.504 67.9129 58.7597 67.2686V56.929C59.7974 57.3867 60.783 57.9447 61.7124 58.5931ZM53.5186 27.504V30.7578C53.4664 31.4443 52.8622 31.9582 52.1757 31.904C51.5655 31.8538 51.0797 31.3681 51.0296 30.7578V27.504C50.9774 26.8155 51.4872 26.2153 52.1757 26.1571C52.8622 26.1029 53.4664 26.6168 53.5186 27.3033C53.5266 27.3695 53.5266 27.4378 53.5186 27.504ZM37.2916 2.44689C38.7429 2.55729 40.1741 2.87244 41.5411 3.37426V9.41422C40.5575 10.8294 39.0058 11.7387 37.2916 11.9033V2.44689ZM30.6575 3.04306C32.0385 2.64762 33.4657 2.42882 34.9069 2.39068V11.9354C33.1927 11.7708 31.637 10.8595 30.6575 9.44433V3.04306ZM20.1814 30.7478C20.1272 31.4343 19.523 31.9502 18.8385 31.894C18.2283 31.8478 17.7425 31.362 17.6923 30.7478V27.504C17.6361 26.8155 18.15 26.2153 18.8385 26.1571C19.523 26.1029 20.1272 26.6168 20.1814 27.3033C20.1874 27.3695 20.1874 27.4378 20.1814 27.504V30.7478ZM18.9328 23.8608C18.706 23.8608 18.4852 23.8828 18.2664 23.923C18.0818 23.6761 17.9934 23.365 18.0255 23.0558V21.6106C18.0115 21.2312 18.1058 20.8578 18.3046 20.5347C18.3507 20.4965 18.4109 20.4825 18.4732 20.4905H18.9328C19.5912 20.4905 20.1272 19.9546 20.1272 19.2942C20.1272 18.7381 20.2838 8.15565 28.2648 4.00255V9.73339C28.2648 9.91003 28.3049 10.0827 28.3812 10.2412C28.4635 10.4078 30.4086 14.3783 36.0892 14.3783C41.7679 14.3783 43.721 10.4018 43.7993 10.2412C43.8715 10.0827 43.9137 9.91003 43.9077 9.73339V4.57663C50.9031 9.04087 51.0697 18.7602 51.0697 19.2942C51.0697 19.9546 51.6057 20.4905 52.262 20.4905H52.7237C52.8422 20.4905 52.8682 20.4905 52.8903 20.5347C53.0931 20.8659 53.1874 21.2473 53.1693 21.6367V23.0558C53.2015 23.369 53.1091 23.6821 52.9144 23.923C51.7442 23.6921 50.5338 24.0615 49.6947 24.9126H21.5162C20.8318 24.2321 19.9024 23.8587 18.9409 23.8688L18.9328 23.8608ZM22.5681 36.2057V27.2993H48.6589V36.2057C48.6489 42.4604 43.5765 47.5228 37.3237 47.5168H33.8872C27.6405 47.5148 22.5761 42.4544 22.5681 36.2057ZM42.9141 48.7031V50.4675L35.5974 59.8235L28.1985 50.4675V48.6529C29.983 49.4819 31.9241 49.9095 33.8872 49.9115H37.3237C39.2527 49.9115 41.1597 49.498 42.9141 48.7031ZM21.3035 53.7234C23.5777 53.0288 25.5369 52.4989 26.5526 52.2339L35.6135 63.6896L44.5721 52.2339C45.6018 52.5049 47.5931 53.0288 49.9175 53.7535V67.4192H21.2774L21.3035 53.7234ZM60.3535 73.5374V85.6354H10.8976V73.5374C10.8976 69.9363 13.5633 69.4184 13.8484 69.3682C14.4405 69.2859 14.8761 68.7801 14.8761 68.1859V55.9334C16.1869 55.4235 17.5799 54.9398 18.9328 54.5022V68.6135C18.9328 69.2739 19.4668 69.8098 20.1272 69.8098H51.148C51.8064 69.8098 52.3423 69.2739 52.3423 68.6135V54.5263L56.3589 55.9334V68.1859C56.3589 68.7821 56.8026 69.292 57.3927 69.3682C57.5151 69.3843 60.3535 69.8098 60.3535 73.5374Z" fill="#37A58C"/>
<path d="M13.6595 72.0342H20.1009V74.174H13.6595V72.0342Z" fill="#37A58C"/>
<path d="M51.1097 72.0342H57.5552V74.174H51.1097V72.0342Z" fill="#37A58C"/>
<path d="M100.75 0H63.25C62.56 0 62 0.56 62 1.25V38.75C62 39.44 62.56 40 63.25 40H100.75C101.44 40 102 39.44 102 38.75V1.25C102 0.56 101.44 0 100.75 0ZM99.5 37.5H64.5V2.5H99.5V37.5Z" fill="#37A58C"/>
<path d="M95.75 5H68.25C67.56 5 67 5.56 67 6.25V33.75C67 34.44 67.56 35 68.25 35H95.75C96.44 35 97 34.44 97 33.75V6.25C97 5.56 96.44 5 95.75 5ZM80.75 32.5H69.5V21.25H80.75V32.5ZM80.75 18.75H69.5V7.5H80.75V18.75ZM94.5 32.5H83.25V21.25H94.5V32.5ZM94.5 18.75H83.25V7.5H94.5V18.75Z" fill="#37A58C"/>
</svg>
