<svg width="88" height="88" viewBox="0 0 88 88" fill="none" xmlns="http://www.w3.org/2000/svg">
<path d="M73.5301 36.307C73.8979 35.5404 74.0193 34.6787 73.8774 33.8404C73.7356 33.002 73.3376 32.2281 72.7381 31.6252C71.9522 30.8755 70.9078 30.4573 69.8217 30.4573C68.7356 30.4573 67.6913 30.8755 66.9054 31.6252L65.9346 32.5973L64.5596 31.2223L66.7596 29.0223C67.249 28.553 67.843 28.2068 68.4926 28.0121C69.1421 27.8175 69.8286 27.7801 70.4955 27.903C72.4113 28.1834 74.3661 28.014 76.2051 27.4083C78.0441 26.8026 79.717 25.7772 81.0912 24.4133C82.8388 22.6734 84.0251 20.4499 84.4969 18.0294C84.9687 15.6089 84.7044 13.1026 83.7381 10.8338C83.6504 10.6263 83.5131 10.4436 83.3382 10.3016C83.1633 10.1596 82.9563 10.0628 82.7352 10.0196C82.5141 9.97643 82.2858 9.98822 82.0704 10.0539C81.8549 10.1197 81.6589 10.2373 81.4996 10.3965L74.8006 17.09L71.5611 16.4424L70.9107 13.2002L77.6042 6.50529C77.7644 6.34601 77.8828 6.14974 77.9491 5.93381C78.0153 5.71789 78.0274 5.48897 77.9842 5.26728C77.9409 5.04559 77.8438 4.83796 77.7012 4.66275C77.5587 4.48753 77.3752 4.35012 77.167 4.26267C75.14 3.40222 72.9202 3.09822 70.7365 3.38202C68.5528 3.66583 66.4845 4.52716 64.7448 5.87715C63.0051 7.22713 61.6572 9.01687 60.84 11.0617C60.0229 13.1065 59.7662 15.3323 60.0964 17.5094C60.217 18.1757 60.1784 18.8612 59.9837 19.5097C59.7889 20.1583 59.4435 20.7516 58.9757 21.2412L56.7757 23.4412L47.6155 14.2795L45.7647 10.5877C45.6411 10.3399 45.4456 10.1353 45.2037 10.0005L36.4601 5.15092C36.1989 5.00571 35.8975 4.94958 35.6015 4.99101C35.3055 5.03245 35.031 5.16919 34.8197 5.38054L32.881 7.31929C32.6699 7.53051 32.5334 7.80468 32.492 8.10038C32.4505 8.39607 32.5065 8.69721 32.6514 8.95829L37.5051 17.7033C37.6393 17.9454 37.8434 18.1415 38.0909 18.2657L41.7841 20.1178L50.943 29.278L48.743 31.478C48.2536 31.9473 47.6596 32.2936 47.01 32.4882C46.3605 32.6828 45.674 32.7202 45.0071 32.5973C42.831 32.2706 40.6071 32.5296 38.5643 33.3477C36.5216 34.1659 34.7337 35.5136 33.3848 37.2522C32.0358 38.9907 31.1745 41.0573 30.8895 43.2393C30.6045 45.4213 30.906 47.6398 31.7631 49.6665C31.8508 49.874 31.9881 50.0568 32.163 50.1987C32.3379 50.3407 32.545 50.4375 32.766 50.4807C32.9871 50.5239 33.2154 50.5121 33.4308 50.4464C33.6463 50.3807 33.8423 50.263 34.0016 50.1038L40.6979 43.4103L43.9374 44.0579L44.585 47.2988L37.8915 53.9937C37.7323 54.153 37.6146 54.349 37.5489 54.5644C37.4832 54.7799 37.4714 55.0082 37.5145 55.2292C37.5577 55.4503 37.6546 55.6574 37.7965 55.8323C37.9385 56.0072 38.1213 56.1445 38.3287 56.2322C40.3557 57.0926 42.5755 57.3966 44.7592 57.1128C46.9429 56.829 49.0113 55.9677 50.7509 54.6177C52.4906 53.2677 53.8386 51.478 54.6557 49.4332C55.4728 47.3884 55.7295 45.1626 55.3994 42.9854C55.2787 42.3191 55.3173 41.6337 55.512 40.9851C55.7068 40.3366 56.0522 39.7433 56.52 39.2537L58.72 37.0537L60.095 38.4287L59.1256 39.4035C58.4326 40.0885 58.0052 40.9972 57.9195 41.9679C57.8339 42.9385 58.0955 43.9081 58.6579 44.7038C59.2203 45.4996 60.0468 46.0699 60.9904 46.3132C61.9339 46.5565 62.9332 46.457 63.8102 46.0324L71.931 54.1545C72.5694 54.793 73.3273 55.2995 74.1614 55.6451C74.9956 55.9907 75.8896 56.1686 76.7925 56.1687C77.6954 56.1687 78.5894 55.9909 79.4236 55.6455C80.2578 55.3 81.0158 54.7936 81.6543 54.1552C82.2928 53.5168 82.7993 52.7589 83.1449 51.9248C83.4904 51.0906 83.6683 50.1966 83.6684 49.2937C83.6685 48.3908 83.4907 47.4968 83.1452 46.6626C82.7998 45.8284 82.2934 45.0704 81.655 44.4319L73.5301 36.307ZM43.5702 18.0127C43.4666 17.9084 43.3468 17.8215 43.2155 17.7555L39.7037 15.9942L35.5581 8.52517L36.0256 8.05767L43.4932 12.2033L45.2546 15.7137C45.3201 15.8457 45.407 15.9661 45.5117 16.0698L54.8287 25.3882L52.8817 27.3338L43.5702 18.0127ZM54.5881 37.308C53.8137 38.1005 53.2382 39.0652 52.9086 40.123C52.579 41.1809 52.5048 42.3017 52.692 43.3938C52.9204 44.907 52.7849 46.4528 52.2969 47.9032C51.8088 49.3536 50.9822 50.6668 49.8855 51.7341C48.7888 52.8013 47.4536 53.5919 45.9904 54.0403C44.5273 54.4888 42.9784 54.5821 41.472 54.3127L47.0627 48.7233C47.222 48.5636 47.3395 48.3672 47.405 48.1514C47.4704 47.9356 47.4818 47.707 47.4381 47.4858L46.4591 42.6252C46.4064 42.3574 46.2752 42.1114 46.0823 41.9185C45.8893 41.7256 45.6433 41.5944 45.3756 41.5417L40.515 40.5695C40.2937 40.5258 40.0652 40.5372 39.8493 40.6027C39.6335 40.6681 39.4372 40.7857 39.2775 40.9449L33.6881 46.5343C33.4191 45.0283 33.5127 43.48 33.961 42.0174C34.4094 40.5548 35.1996 39.22 36.2663 38.1234C37.333 37.0269 38.6455 36.2002 40.0952 35.7117C41.5449 35.2232 43.0901 35.087 44.6029 35.3143C45.6952 35.4947 46.8145 35.4173 47.8716 35.0883C48.9287 34.7594 49.8943 34.1879 50.6914 33.4195L60.92 23.1923C61.6943 22.3998 62.2699 21.4351 62.5995 20.3773C62.9291 19.3195 63.0033 18.1986 62.8161 17.1065C62.5877 15.5934 62.7232 14.0476 63.2112 12.5972C63.6993 11.1468 64.5259 9.83356 65.6226 8.76629C66.7193 7.69901 68.0545 6.90842 69.5177 6.45999C70.9808 6.01156 72.5297 5.91821 74.0361 6.18767L68.4454 11.777C68.2861 11.9367 68.1686 12.1331 68.1031 12.3489C68.0376 12.5647 68.0263 12.7933 68.07 13.0145L69.0421 17.8752C69.0954 18.1412 69.2262 18.3854 69.418 18.5772C69.6098 18.7691 69.8541 18.8999 70.1201 18.9532L74.9807 19.9253C75.202 19.969 75.4306 19.9576 75.6464 19.8922C75.8622 19.8267 76.0586 19.7092 76.2182 19.5499L81.8131 13.966C82.0821 15.472 81.9885 17.0204 81.5402 18.483C81.0919 19.9456 80.3016 21.2804 79.2349 22.3769C78.1682 23.4734 76.8557 24.3002 75.406 24.7887C73.9563 25.2772 72.4111 25.4134 70.8984 25.186C69.8055 25.0062 68.6857 25.0845 67.6286 25.4147C66.5714 25.7449 65.6061 26.3178 64.8099 27.0877L54.5881 37.308ZM62.6209 33.1665L63.9959 34.5415L62.0406 36.4872L60.6656 35.1122L62.6209 33.1665ZM61.0767 43.292C60.819 43.0342 60.6741 42.6845 60.6741 42.3199C60.6741 41.9553 60.819 41.6056 61.0767 41.3478L68.8551 33.5694C68.9829 33.4418 69.1345 33.3405 69.3014 33.2715C69.4683 33.2024 69.6471 33.1669 69.8277 33.167C70.0083 33.167 70.1871 33.2027 70.354 33.2718C70.5208 33.341 70.6724 33.4424 70.8 33.5701C70.9277 33.6979 71.029 33.8495 71.098 34.0164C71.1671 34.1833 71.2026 34.3621 71.2025 34.5427C71.2024 34.7233 71.1668 34.9021 71.0976 35.069C71.0285 35.2358 70.9271 35.3874 70.7994 35.515L63.0196 43.2934C62.7574 43.5451 62.4079 43.6856 62.0445 43.6853C61.681 43.6851 61.3317 43.5441 61.0699 43.292H61.0767ZM79.7176 52.2103C78.9431 52.9824 77.8941 53.4159 76.8005 53.4159C75.707 53.4159 74.658 52.9824 73.8835 52.2103L65.9374 44.2642L71.7715 38.4314L79.7176 46.3762C80.1007 46.7592 80.4046 47.214 80.612 47.7145C80.8193 48.215 80.926 48.7515 80.926 49.2932C80.926 49.835 80.8193 50.3715 80.612 50.872C80.4046 51.3725 80.1007 51.8272 79.7176 52.2103Z" fill="#37A58C"/>
<path d="M84.0785 61.7375C83.7186 61.1119 83.2389 60.5633 82.6669 60.1232C82.0948 59.683 81.4417 59.3599 80.7447 59.1723C80.0477 58.9847 79.3206 58.9363 78.605 59.0299C77.8893 59.1235 77.1991 59.3572 76.5737 59.7176L63.1661 67.4575C62.4358 66.3598 61.3322 65.564 60.06 65.2176L39.545 59.7176C37.9659 59.2942 36.3049 59.28 34.7188 59.6764L27.5 61.4886V59.125C27.5 58.7603 27.3551 58.4106 27.0973 58.1527C26.8394 57.8949 26.4897 57.75 26.125 57.75H15.125C14.7603 57.75 14.4106 57.8949 14.1527 58.1527C13.8949 58.4106 13.75 58.7603 13.75 59.125V60.5H4.125C3.76033 60.5 3.41059 60.6449 3.15273 60.9027C2.89487 61.1606 2.75 61.5103 2.75 61.875V81.125C2.75 81.4897 2.89487 81.8394 3.15273 82.0973C3.41059 82.3551 3.76033 82.5 4.125 82.5H13.75V83.875C13.75 84.2397 13.8949 84.5894 14.1527 84.8473C14.4106 85.1051 14.7603 85.25 15.125 85.25H26.125C26.4897 85.25 26.8394 85.1051 27.0973 84.8473C27.3551 84.5894 27.5 84.2397 27.5 83.875V81.9748L29.2682 82.8589C30.605 83.5257 32.0782 83.8735 33.572 83.875H54.1654C55.8548 83.8742 57.5144 83.4294 58.9779 82.5853L82.0779 69.2477C83.3352 68.5135 84.2511 67.3118 84.6259 65.9049C85.0007 64.498 84.8039 62.9999 84.0785 61.7375ZM5.5 79.75V63.25H13.75V79.75H5.5ZM24.75 82.5H16.5V60.5H24.75V82.5ZM80.6987 66.8717L57.5987 80.2092C56.5536 80.8127 55.3681 81.1304 54.1612 81.1305H33.572C32.5053 81.1289 31.4535 80.8804 30.4989 80.4045L27.5 78.9002V64.3253L35.3843 62.3535C36.5177 62.0715 37.7042 62.0814 38.8328 62.3824L59.3477 67.8824C59.7027 67.9701 60.0365 68.1278 60.3298 68.3461C60.6231 68.5645 60.8699 68.8391 61.0558 69.1539C61.2416 69.4688 61.3629 69.8175 61.4123 70.1798C61.4618 70.542 61.4386 70.9105 61.344 71.2637C61.2493 71.6168 61.0852 71.9476 60.8613 72.2366C60.6373 72.5256 60.358 72.767 60.0396 72.9467C59.7212 73.1265 59.3701 73.2409 59.007 73.2834C58.6439 73.3258 58.2759 73.2954 57.9246 73.194L41.525 68.7968C41.1734 68.7044 40.7995 68.7551 40.4851 68.9377C40.1707 69.1203 39.9415 69.42 39.8475 69.7712C39.7535 70.1224 39.8024 70.4966 39.9836 70.8118C40.1647 71.127 40.4634 71.3576 40.8141 71.4532L57.211 75.8533C57.6783 75.9786 58.1599 76.0424 58.6438 76.043C59.4031 76.0487 60.1553 75.8953 60.8517 75.5925C61.5481 75.2896 62.1733 74.8442 62.687 74.2849C63.2007 73.7257 63.5914 73.0649 63.834 72.3453C64.0767 71.6257 64.1658 70.8633 64.0956 70.1071L77.9446 62.1115C78.5783 61.762 79.3227 61.6716 80.0216 61.8593C80.7205 62.047 81.3195 62.4981 81.6929 63.118C82.0548 63.7485 82.1533 64.4964 81.9672 65.1992C81.7811 65.902 81.3253 66.503 80.6987 66.8717Z" fill="#37A58C"/>
</svg>
