<svg width="88" height="88" viewBox="0 0 88 88" fill="none" xmlns="http://www.w3.org/2000/svg">
<g clip-path="url(#clip0)">
<path d="M87.8382 20.8673C87.5353 19.741 86.7964 18.7808 85.7854 18.1987C84.7736 17.6137 83.5707 17.4555 82.4423 17.7584C81.3152 18.0619 80.3551 18.8002 79.7729 19.8112L79.0397 21.0871C78.343 20.6869 77.453 20.9225 77.0456 21.6156L73.3208 27.9646L72.0449 27.2313C71.7069 27.0359 71.3045 26.9829 70.9279 27.0846C70.5505 27.187 70.2298 27.4347 70.0357 27.7741C69.6383 28.4751 69.8803 29.3658 70.5785 29.7682L71.8544 30.5014L59.3899 52.1017L56.3103 60.3288L54.8438 63.0705C53.9853 64.5641 54.077 66.4208 55.0787 67.822L51.7793 71.869L50.8556 69.5526C50.4389 68.5201 49.4744 67.8127 48.3653 67.7261C47.2554 67.6387 46.1921 68.1872 45.62 69.1416L45.0923 70.036L44.594 64.1703C44.4794 62.7826 43.4046 61.6671 42.0227 61.4995C40.6401 61.3327 39.3312 62.1611 38.8894 63.4815L35.2821 74.3035C35.03 75.0689 35.4425 75.8938 36.2057 76.1515C36.3489 76.2181 36.5029 76.2582 36.6604 76.2682C37.2905 76.2704 37.8519 75.8687 38.0538 75.2715L41.6461 64.4495L42.1595 70.4026C42.2654 71.6728 43.1784 72.7289 44.42 73.0168C45.6615 73.3046 46.9461 72.7576 47.5998 71.6642L48.1426 70.7692L49.0519 73.0719C49.4379 74.0421 50.3107 74.7345 51.3439 74.8885C52.3771 75.0424 53.4139 74.635 54.067 73.8194L57.4838 69.4939C57.8619 69.5927 58.2514 69.6422 58.6423 69.6407C60.214 69.6529 61.6733 68.8252 62.4695 67.4697L63.9359 65.0209L69.523 58.2316L82.1193 36.3671L83.3953 37.1003C83.7354 37.2951 83.9831 37.6166 84.0841 37.9953C84.1858 38.3712 84.1328 38.7722 83.938 39.1095L78.0724 49.272C77.8511 49.6057 77.7759 50.0152 77.8647 50.4062C77.9535 50.7964 78.1977 51.1337 78.5414 51.3392C78.8793 51.5353 79.2817 51.5883 79.6584 51.4867C80.0357 51.3843 80.3565 51.1365 80.5505 50.7971L86.4162 40.6346C87.0012 39.6229 87.1594 38.4199 86.8558 37.2915C86.5522 36.1645 85.814 35.2043 84.803 34.6221L83.527 33.8889L87.1931 27.5392C87.5933 26.8425 87.3578 25.9532 86.6654 25.5451L87.3986 24.2692C87.9993 23.2417 88.1583 22.0144 87.8382 20.8673ZM82.3098 21.2776C82.5038 20.9382 82.826 20.6898 83.2048 20.5888C83.5815 20.4957 83.9796 20.548 84.319 20.7356C84.6591 20.9296 84.9068 21.2518 85.0085 21.6299C85.1016 22.0065 85.0493 22.4046 84.8617 22.744L84.1285 24.02L81.5766 22.5536L82.3098 21.2776ZM62.3227 62.2206L61.5895 61.7952L59.4192 60.5336L61.5014 54.9615L66.1205 57.6301L62.3227 62.2206ZM57.9235 66.458C57.3041 66.0262 57.1136 65.1956 57.4838 64.5369L58.217 63.2617L60.7682 64.7281L60.035 65.989C59.8295 66.3456 59.4844 66.599 59.0827 66.6886C58.681 66.7773 58.2607 66.6943 57.9235 66.458ZM67.7924 55.2257L62.7187 52.2929L74.45 31.9678L79.5238 34.9007L67.7924 55.2257ZM80.9902 32.3638L75.9164 29.431L78.8493 24.3572L83.923 27.2901L80.9902 32.3638Z" fill="#37A58C"/>
<path d="M23.1398 65.7247L17.9493 70.9015L14.8403 67.7925C14.2682 67.224 13.3446 67.224 12.7725 67.7925C12.4947 68.0682 12.3386 68.4427 12.3386 68.8336C12.3386 69.2246 12.4947 69.5998 12.7725 69.8747L15.8814 72.9837C16.4314 73.5293 17.1746 73.8351 17.9493 73.8343C18.7284 73.8386 19.478 73.5329 20.0315 72.9837L25.2077 67.7925C25.706 67.2104 25.6724 66.3433 25.131 65.802C24.589 65.26 23.7219 65.2263 23.1398 65.7247Z" fill="#37A58C"/>
<path d="M5.8656 69.6692C5.8656 76.5538 11.4463 82.1338 18.3301 82.1338C25.214 82.1338 30.7947 76.5538 30.7947 69.6692C30.7947 68.8594 30.1381 68.2028 29.3283 68.2028C28.5184 68.2028 27.8619 68.8594 27.8619 69.6692C27.8619 74.9334 23.5944 79.2009 18.3301 79.2009C13.0659 79.2009 8.79843 74.9334 8.79843 69.6692C8.79843 64.405 13.0659 60.1375 18.3301 60.1375C20.3937 60.1318 22.4022 60.8013 24.049 62.0443C24.697 62.5305 25.6164 62.3987 26.1019 61.7507C26.588 61.1027 26.457 60.1841 25.809 59.6979C22.032 56.8653 16.9783 56.4099 12.7559 58.5207C8.53279 60.6323 5.8656 64.9485 5.8656 69.6692Z" fill="#37A58C"/>
<path d="M52.7909 11.7458C53.6008 11.7458 54.2574 11.0899 54.2574 10.2794C54.2574 9.46958 53.6008 8.81299 52.7909 8.81299H14.6641C13.8543 8.81299 13.1977 9.46958 13.1977 10.2794V16.1451C13.1977 16.9556 13.8543 17.6115 14.6641 17.6115H52.7909C53.6008 17.6115 54.2574 16.9556 54.2574 16.1451C54.2574 15.3352 53.6008 14.6787 52.7909 14.6787H16.1305V11.7458H52.7909Z" fill="#37A58C"/>
<path d="M19.0634 20.5444C18.2536 20.5444 17.597 21.201 17.597 22.0108C17.597 22.8214 18.2536 23.4773 19.0634 23.4773H48.3917C49.2016 23.4773 49.8582 22.8214 49.8582 22.0108C49.8582 21.201 49.2016 20.5444 48.3917 20.5444H19.0634Z" fill="#37A58C"/>
<path d="M57.1902 30.8096H24.9291C24.1192 30.8096 23.4626 31.4662 23.4626 32.276C23.4626 33.0865 24.1192 33.7424 24.9291 33.7424H57.1902C58.0001 33.7424 58.6567 33.0865 58.6567 32.276C58.6567 31.4662 58.0001 30.8096 57.1902 30.8096Z" fill="#37A58C"/>
<path d="M42.5261 41.0743C42.5261 40.2645 41.8695 39.6079 41.0597 39.6079H11.7314C10.9215 39.6079 10.265 40.2645 10.265 41.0743C10.265 41.8849 10.9215 42.5407 11.7314 42.5407H41.0597C41.8695 42.5407 42.5261 41.8849 42.5261 41.0743Z" fill="#37A58C"/>
<path d="M57.1903 39.6079H46.9254C46.1156 39.6079 45.459 40.2645 45.459 41.0743C45.459 41.8849 46.1156 42.5407 46.9254 42.5407H57.1903C58.0001 42.5407 58.6567 41.8849 58.6567 41.0743C58.6567 40.2645 58.0001 39.6079 57.1903 39.6079Z" fill="#37A58C"/>
<path d="M26.3955 49.8728C27.2054 49.8728 27.862 49.2169 27.862 48.4064C27.862 47.5965 27.2054 46.9399 26.3955 46.9399H11.7314C10.9215 46.9399 10.265 47.5965 10.265 48.4064C10.265 49.2169 10.9215 49.8728 11.7314 49.8728H26.3955Z" fill="#37A58C"/>
<path d="M32.2611 49.8728H42.526C43.3358 49.8728 43.9924 49.2169 43.9924 48.4064C43.9924 47.5965 43.3358 46.9399 42.526 46.9399H32.2611C31.4513 46.9399 30.7947 47.5965 30.7947 48.4064C30.7947 49.2169 31.4513 49.8728 32.2611 49.8728Z" fill="#37A58C"/>
<path d="M65.9888 67.4693C65.1789 67.4693 64.5223 68.1259 64.5223 68.9358V83.5999C64.5223 84.4105 63.8657 85.0663 63.0559 85.0663H4.39925C3.58943 85.0663 2.93283 84.4105 2.93283 83.5999V4.41341C2.93283 3.60359 3.58943 2.94699 4.39925 2.94699H63.0559C63.8657 2.94699 64.5223 3.60359 64.5223 4.41341V31.9531C64.5223 32.7629 65.1789 33.4195 65.9888 33.4195C66.7986 33.4195 67.4552 32.7629 67.4552 31.9531V4.41341C67.4552 1.98394 65.4854 0.0141602 63.0559 0.0141602H4.39925C1.96978 0.0141602 0 1.98394 0 4.41341V83.5999C0 86.0301 1.96978 87.9992 4.39925 87.9992H63.0559C65.4854 87.9992 67.4552 86.0301 67.4552 83.5999V68.9358C67.4552 68.1259 66.7986 67.4693 65.9888 67.4693Z" fill="#37A58C"/>
</g>
<defs>
<clipPath id="clip0">
<rect width="88" height="88" fill="white"/>
</clipPath>
</defs>
</svg>
