<svg width="106" height="106" viewBox="0 0 106 106" fill="none" xmlns="http://www.w3.org/2000/svg">
<path d="M98.5796 47.8992L95.8346 36.9193C96.5851 36.7599 97.1482 36.0941 97.1482 35.2964V33.5261C97.1482 29.6823 94.021 26.5553 90.1774 26.5553H77.6744V22.9037C77.6744 21.0123 76.1357 19.4736 74.2443 19.4736H10.5114C8.61995 19.4736 7.0813 21.0123 7.0813 22.9037V52.9999C7.0813 53.9164 7.82433 54.6596 8.74107 54.6596C9.65759 54.6596 10.4008 53.9166 10.4008 52.9999V22.9037C10.4008 22.8427 10.4503 22.7932 10.5114 22.7932H74.2441C74.3052 22.7932 74.3547 22.8427 74.3547 22.9037V53.0003C74.3547 53.9168 75.0977 54.66 76.0144 54.66C76.931 54.66 77.6742 53.917 77.6742 53.0003V51.1188H97.2529C97.2546 51.1188 97.2558 51.1192 97.2573 51.1192C97.2589 51.1192 97.2604 51.119 97.2618 51.119C99.6711 51.1206 101.717 52.7019 102.419 54.8809H97.2585C96.342 54.8809 95.5988 55.624 95.5988 56.5407V60.0814C95.5988 62.9489 97.9316 65.2818 100.799 65.2818H102.68V72.5844H98.3405C96.9149 68.468 93.0018 65.5029 88.4067 65.5029C83.8116 65.5029 79.8983 68.468 78.4729 72.5844H77.6738V60.0812C77.6738 59.1646 76.9307 58.4214 76.014 58.4214C75.0975 58.4214 74.3542 59.1644 74.3542 60.0812V72.584H39.9191C38.4935 68.4676 34.5804 65.5025 29.9854 65.5025C25.3903 65.5025 21.477 68.4676 20.0516 72.584H10.5114C10.4503 72.584 10.4008 72.5345 10.4008 72.4734V68.822H17.5929C18.5094 68.822 19.2527 68.079 19.2527 67.1622C19.2527 66.2455 18.5096 65.5025 17.5929 65.5025H1.65977C0.743242 65.5025 0 66.2455 0 67.1622C0 68.079 0.743035 68.822 1.65977 68.822H7.0815V72.4734C7.0815 74.3649 8.62016 75.9035 10.5116 75.9035H19.4769C19.4765 75.9404 19.474 75.977 19.474 76.0141C19.474 81.8101 24.1895 86.5255 29.9854 86.5255C35.7812 86.5255 40.4968 81.8101 40.4968 76.0141C40.4968 75.9768 40.4943 75.9404 40.4939 75.9035H77.8982C77.8978 75.9404 77.8953 75.977 77.8953 76.0141C77.8953 81.8101 82.6109 86.5255 88.4067 86.5255C94.2025 86.5255 98.9181 81.8101 98.9181 76.0141C98.9181 75.9768 98.9156 75.9404 98.9152 75.9035H104.34C105.257 75.9035 106 75.1605 106 74.2437V56.5403C106 52.1695 102.775 48.5379 98.5796 47.8992ZM77.6744 29.8747H90.1774C92.1908 29.8747 93.8288 31.5127 93.8288 33.5261V33.6366H77.6744V29.8747ZM77.6744 47.7994V36.956H92.4223L95.1331 47.7994H77.6744ZM29.9854 83.2065C26.0197 83.2065 22.7933 79.9804 22.7933 76.0145C22.7933 72.0486 26.0197 68.8224 29.9854 68.8224C33.9511 68.8224 37.1774 72.0486 37.1774 76.0145C37.1774 79.9804 33.9511 83.2065 29.9854 83.2065ZM88.4071 83.2065C84.4414 83.2065 81.215 79.9804 81.215 76.0145C81.215 72.0486 84.4414 68.8224 88.4071 68.8224C92.3728 68.8224 95.5992 72.0486 95.5992 76.0145C95.5992 79.9804 92.3728 83.2065 88.4071 83.2065ZM102.681 61.9622H100.8C99.7624 61.9622 98.9185 61.1184 98.9185 60.0812V58.2001H102.68V61.9622H102.681Z" fill="#37A58C"/>
<path d="M29.9854 72.5845C28.094 72.5845 26.5553 74.1231 26.5553 76.0146C26.5553 77.906 28.094 79.4447 29.9854 79.4447C31.8768 79.4447 33.4155 77.906 33.4155 76.0146C33.4155 74.1231 31.8768 72.5845 29.9854 72.5845Z" fill="#37A58C"/>
<path d="M88.407 72.5845C86.5156 72.5845 84.9769 74.1231 84.9769 76.0146C84.9769 77.906 86.5156 79.4447 88.407 79.4447C90.2985 79.4447 91.8371 77.906 91.8371 76.0146C91.8371 74.1231 90.2985 72.5845 88.407 72.5845Z" fill="#37A58C"/>
<path d="M68.9331 65.5034H44.1482C43.2316 65.5034 42.4884 66.2465 42.4884 67.1632C42.4884 68.0799 43.2314 68.823 44.1482 68.823H68.9331C69.8497 68.823 70.5929 68.0799 70.5929 67.1632C70.5929 66.2465 69.8499 65.5034 68.9331 65.5034Z" fill="#37A58C"/>
<path d="M26.4447 58.4219H5.20042C4.28389 58.4219 3.54065 59.1649 3.54065 60.0816C3.54065 60.9984 4.28368 61.7414 5.20042 61.7414H26.4447C27.3612 61.7414 28.1045 60.9984 28.1045 60.0816C28.1045 59.1649 27.3612 58.4219 26.4447 58.4219Z" fill="#37A58C"/>
<path d="M57.7143 35.8932C57.0663 35.2452 56.0152 35.2452 55.3672 35.8934L40.6075 50.6529L32.9293 42.9747C32.2811 42.3265 31.2302 42.3265 30.5822 42.9747C29.934 43.6229 29.934 44.6736 30.5822 45.3218L39.4341 54.1737C39.7581 54.4979 40.1829 54.6598 40.6075 54.6598C41.0321 54.6598 41.4572 54.4979 41.781 54.1737L57.7141 38.2405C58.3623 37.5921 58.3623 36.5414 57.7143 35.8932Z" fill="#37A58C"/>
</svg>
